<?xml version="1.0" encoding="UTF-8"?>
<svg id="Calque_1" xmlns="http://www.w3.org/2000/svg" version="1.1" viewBox="0 0 595.28 841.89">
  <!-- Generator: Adobe Illustrator 29.8.3, SVG Export Plug-In . SVG Version: 2.1.1 Build 3)  -->
  <defs>
    <style>
      .st0 {
        fill: #fff;
      }
    </style>
  </defs>
  <g>
    <path d="M317.69,180.78c1.75,1.75-.21,5-1.1,6.72-5.52,10.56-12.52,21.34-18.57,31.68-2.31,3.94-4.42,8.34-6.8,12.21s-4.95,6.89-9.6,7.38l-75.83-.27c-.86-.46-1.62-1.39-1.72-2.37-.19-2.05,4.27-8.33,5.43-10.38,7.4-13.06,14.78-27.08,22.75-39.72,1.59-2.52,3.53-4.48,6.45-5.44l77.21-.25c.53.04,1.4.06,1.77.43ZM274.22,185.54c-2.47.31-5.97,2.84-7.32,4.9-7.71,11.77-13.77,25.38-21.52,37.21-2.75,5.97,1.86,6.71,6.4,4.36,2.21-1.14,3.52-3.01,4.8-5.05,6.04-9.62,12.22-20.8,17.78-30.77,1.63-2.92,7.38-11.62-.14-10.66Z"/>
    <path d="M311.9,137.25l77.02-.09c3.27.38,2.38,3.3,1.36,5.45-1.76,3.71-6.55,12.18-9.85,14.26-1.05.66-2.13,1.22-3.4,1.35-8.97-.62-19.03.83-27.86.02-7.52-.69,2.13-10.03,1.81-13.34-.52-5.43-9.17-1-10.74,1.67l-25.25,43.67c-1.61,2.75-5.11,5.04-8.26,5.32-6.58.6-19.94.63-26.5.02s-2.04-5.68-.56-8.4c8.72-16.02,17.97-31.98,27.75-47.28l4.49-2.64Z"/>
    <path class="st0" d="M274.22,185.54c7.52-.95,1.77,7.75.14,10.66-5.57,9.97-11.74,21.15-17.78,30.77-1.28,2.04-2.59,3.9-4.8,5.05-4.55,2.35-9.16,1.61-6.4-4.36,7.76-11.84,13.82-25.44,21.52-37.21,1.35-2.06,4.85-4.59,7.32-4.9Z"/>
  </g>
  <rect y="420.94" width="595.28" height="420.94"/>
  <g>
    <path class="st0" d="M214.34,626.79c.99-1.05,3.31-2.62,4.71-2.95l77.84-.25c3.82,1.11,1.45,5.08.21,7.4-8.5,15.87-18.84,31.28-27.52,47.11-1.71,2.1-5.06,4.04-7.8,4.13l-75.7-.33c-2.51-1.19-1.88-3.51-.67-5.48,8.47-14.11,16.2-28.7,24.65-42.82,1.16-1.94,2.85-5.29,4.28-6.8ZM254.35,628.8c-2.22.37-5.78,3.06-7,4.93-7.83,11.96-14.05,25.71-21.84,37.79-2.39,5.68,2.3,6.11,6.45,4.06,2.35-1.16,3.68-3.06,5.03-5.2,7.59-12.03,14.03-25.31,21.45-37.5.74-3.18-1.02-4.59-4.09-4.09Z"/>
    <path class="st0" d="M292.06,580.7l77.3-.09c2.43.18,2.56,2.11,2.05,4.11-.37,1.43-6.5,11.66-7.69,13.1-1.57,1.92-4.13,3.66-6.64,3.93-8.62.93-18.83-.72-27.63.01-8.55-1.79,5.12-11.35.88-15.19-2.83-2.56-7.88,1.21-9.84,3.48-9.04,14-16.25,29.97-25.35,43.83-1.89,2.88-4.86,4.88-8.29,5.34-8.55-.59-18.17.8-26.59.02-3.91-.36-3.71-2.74-2.34-5.77l28.92-49.45c1.66-1.2,3.09-2.86,5.21-3.31Z"/>
    <path d="M254.35,628.8c3.06-.5,4.83.91,4.09,4.09-7.42,12.19-13.87,25.46-21.45,37.5-1.35,2.13-2.67,4.04-5.03,5.2-4.15,2.05-8.84,1.62-6.45-4.06,7.79-12.08,14.01-25.83,21.84-37.79,1.22-1.87,4.78-4.56,7-4.93Z"/>
  </g>
</svg>